<?xml version="1.0" encoding="UTF-8" standalone="no"?>
<!-- Created with Inkscape (http://www.inkscape.org/) -->

<svg
   version="1.1"
   id="svg1"
   width="360"
   height="360"
   viewBox="0 0 360 360"
   sodipodi:docname="Reset-Logo.svg"
   inkscape:version="1.4 (e7c3feb100, 2024-10-09)"
   xmlns:inkscape="http://www.inkscape.org/namespaces/inkscape"
   xmlns:sodipodi="http://sodipodi.sourceforge.net/DTD/sodipodi-0.dtd"
   xmlns="http://www.w3.org/2000/svg"
   xmlns:svg="http://www.w3.org/2000/svg">
  <defs
     id="defs1" />
  <sodipodi:namedview
     id="namedview1"
     pagecolor="#ffffff"
     bordercolor="#000000"
     borderopacity="0.25"
     inkscape:showpageshadow="2"
     inkscape:pageopacity="0.0"
     inkscape:pagecheckerboard="0"
     inkscape:deskcolor="#d1d1d1"
     inkscape:zoom="1.0795898"
     inkscape:cx="180.16102"
     inkscape:cy="179.69788"
     inkscape:window-width="1920"
     inkscape:window-height="1043"
     inkscape:window-x="0"
     inkscape:window-y="0"
     inkscape:window-maximized="1"
     inkscape:current-layer="layer1" />
  <g
     inkscape:groupmode="layer"
     id="layer1"
     inkscape:label="background"
     style="display:inline"
     transform="translate(-161.33334,-161.33334)">
    <circle
       style="fill:#ffffff;fill-rule:evenodd"
       id="path1"
       cx="341.33334"
       cy="341.33334"
       r="180" />
  </g>
  <g
     inkscape:groupmode="layer"
     inkscape:label="Image"
     id="g1"
     transform="translate(-161.33334,-161.33334)">
    <g
       id="g434">
      <path
         style="fill:#44daed"
         d="m 257.45287,442.3825 c -57.70591,-57.47393 -53.21365,-149.73475 9.49948,-195.09803 l 3.619,-2.6178 -4.52225,-10.33333 c -2.48724,-5.68333 -4.11579,-10.35262 -3.619,-10.3762 3.39092,-0.16092 61.57037,18.29029 61.27356,19.43249 -0.20367,0.78379 -6.9269,13.24511 -14.9405,27.69182 l -14.57018,26.26676 -4.19009,-10.10682 c -5.01638,-12.09988 -4.27097,-11.77026 -12.58346,-5.5644 -45.25512,33.78608 -51.22053,107.95358 -13.18994,163.98969 2.86177,4.21667 4.98164,7.66667 4.71082,7.66667 -0.27082,0 -5.44016,-4.92788 -11.48744,-10.95085 z m 18.2138,1.7139 -6.33333,-9.22351 v -48.69778 -48.69777 l 51.66667,-0.48017 c 62.39733,-0.5799 68.85506,-2.30898 75.71561,-20.27307 12.34819,-32.33329 -11.55413,-50.47702 -63.88469,-48.49347 -6.3271,0.23982 -11.50241,0.2254 -11.5007,-0.0321 0.002,-0.25746 3.92063,-7.38994 8.70872,-15.84995 4.78808,-8.46001 8.53808,-15.51722 8.33333,-15.68268 -0.20475,-0.16547 -3.07227,-1.27342 -6.37227,-2.46212 -9.20319,-3.3151 44.63697,-2.2604 57.33333,1.12314 62.90578,16.76415 73.01565,101.83636 15.00001,126.22152 -9.0141,3.78881 -11.15525,-0.92735 21.66666,47.72358 15.76667,23.37046 28.66667,42.84489 28.66667,43.27652 0,0.43163 -11.57312,0.78478 -25.71804,0.78478 h -25.71803 l -27.28197,-41.32112 -27.28196,-41.32112 -18.33334,-0.0122 -18.33333,-0.0122 v 41.33333 41.33334 l -15,-0.007 -15,-0.007 z"
         id="path436" />
      <path
         style="fill:#44a6eb"
         d="m 275.66667,444.0964 -6.33333,-9.22351 v -48.69778 -48.69777 l 51.66667,-0.48017 c 62.39733,-0.5799 68.85506,-2.30898 75.71561,-20.27307 12.34819,-32.33329 -11.55413,-50.47702 -63.88469,-48.49347 -6.3271,0.23982 -11.50241,0.2254 -11.5007,-0.0321 0.002,-0.25746 3.92063,-7.38994 8.70872,-15.84995 4.78808,-8.46001 8.53808,-15.51722 8.33333,-15.68268 -0.20475,-0.16547 -3.07227,-1.27342 -6.37227,-2.46212 -9.20319,-3.3151 44.63697,-2.2604 57.33333,1.12314 62.90578,16.76415 73.01565,101.83636 15.00001,126.22152 -9.0141,3.78881 -11.15525,-0.92735 21.66666,47.72358 15.76667,23.37046 28.66667,42.84489 28.66667,43.27652 0,0.43163 -11.57312,0.78478 -25.71804,0.78478 h -25.71803 l -27.28197,-41.32112 -27.28196,-41.32112 -18.33334,-0.0122 -18.33333,-0.0122 v 41.33333 41.33334 l -15,-0.007 -15,-0.007 z"
         id="path435" />
      <path
         style="fill:#337cb0"
         d="m 275.66667,444.0964 -6.33333,-9.22351 v -48.76978 -48.76977 l 11,0.0204 c 6.05,0.0112 10.3604,0.46123 9.57867,1 -23.81895,16.41605 -24.44767,69.76709 -1.23093,104.4532 l 7.04571,10.52639 -6.86339,-0.007 -6.86339,-0.007 z m 45.66584,-175.89784 c 4.6e-4,-0.25746 3.91835,-7.38994 8.70644,-15.84995 4.78808,-8.46001 8.53808,-15.51722 8.33333,-15.68268 -0.20475,-0.16547 -3.07227,-1.23562 -6.37227,-2.37812 l -6,-2.07728 8.66667,-0.004 c 4.76666,-0.002 10.54194,0.70052 12.83395,1.5614 l 4.16729,1.56523 -8.72252,16.21962 -8.72252,16.21961 -6.4456,0.44705 c -3.54508,0.24588 -6.44522,0.23641 -6.44477,-0.0211 z"
         id="path434" />
    </g>
  </g>
</svg>
